<svg width="32" height="31" viewBox="0 0 32 31" fill="none" xmlns="http://www.w3.org/2000/svg">
<g clip-path="url(#clip0_6_137)">
<path d="M17.9694 13.0909C18.3995 12.6052 18.7444 12.1156 19.1939 11.6998C19.8323 11.075 20.5883 10.5838 21.4179 10.255C22.2475 9.92607 23.1341 9.76603 24.026 9.78416C25.0529 9.77477 26.0762 9.90549 27.0679 10.1727C29.3386 10.8294 30.6561 12.3992 31.2878 14.6218C31.7052 16.2824 31.8943 17.9924 31.8496 19.7043C31.8496 23.3258 31.8496 26.9511 31.8496 30.5842C31.8496 30.9223 31.7566 31.0117 31.4234 31.0117C29.5582 30.9961 27.6969 30.9961 25.8395 31.0117C25.5101 31.0117 25.452 30.9106 25.452 30.5998C25.452 27.1519 25.452 23.7053 25.452 20.26C25.4718 19.3939 25.3701 18.5292 25.1498 17.6915C24.7041 16.1373 23.5998 15.3601 21.9839 15.4417C19.779 15.5583 18.6281 16.6541 18.3491 18.9039C18.2808 19.4399 18.2472 19.9799 18.2484 20.5203C18.2484 23.8737 18.2484 27.227 18.2484 30.5804C18.2484 30.9145 18.1631 31.0156 17.8221 31.0117C15.9505 31.0117 14.075 31.0117 12.1995 31.0117C11.8973 31.0117 11.812 30.934 11.812 30.6231C11.812 23.9812 11.812 17.3431 11.812 10.709C11.812 10.3787 11.9166 10.301 12.2266 10.3204C14.0091 10.3204 15.7878 10.3204 17.5703 10.3204C17.8958 10.3204 17.981 10.4214 17.9578 10.7323C17.9578 11.5016 17.9694 12.2982 17.9694 13.0909Z" fill="#00FA93"/>
<path d="M7.77036 20.6757C7.77036 23.963 7.77036 27.2464 7.77036 30.5298C7.77036 30.8951 7.68123 31.0039 7.30536 31C5.44536 31 3.58148 31 1.72148 31C1.42311 31 1.33398 30.93 1.33398 30.6114C1.33398 23.9617 1.33398 17.3133 1.33398 10.6662C1.33398 10.3903 1.40373 10.2776 1.69436 10.2776C3.58148 10.2776 5.46861 10.2776 7.35573 10.2776C7.71998 10.2776 7.77036 10.4175 7.76648 10.7284C7.7639 14.0493 7.76519 17.3651 7.77036 20.6757Z" fill="#00FA93"/>
<path d="M8.28205 3.70692C8.28589 4.44507 8.07101 5.16774 7.66468 5.78326C7.25834 6.39878 6.67885 6.87941 5.99971 7.16421C5.32057 7.449 4.57238 7.52512 3.85004 7.38291C3.1277 7.24069 2.46375 6.88656 1.94241 6.36542C1.42107 5.84428 1.06583 5.17962 0.921738 4.45573C0.77765 3.73185 0.851209 2.98136 1.13309 2.29946C1.41496 1.61755 1.89246 1.03496 2.505 0.625574C3.11755 0.216186 3.83755 -0.00155193 4.57368 -2.25155e-05C5.55394 0.00404294 6.49307 0.395532 7.18732 1.08951C7.88156 1.78349 8.27492 2.72397 8.28205 3.70692Z" fill="#00FA93"/>
</g>
<defs>
<clipPath id="clip0_6_137">
<rect width="31" height="31" fill="white" transform="translate(0.849609)"/>
</clipPath>
</defs>
</svg>
