<svg width="31" height="31" viewBox="0 0 31 31" fill="none" xmlns="http://www.w3.org/2000/svg">
<g clip-path="url(#clip0_6_127)">
<path d="M21.312 0H9.68701C4.33757 0 -0.000488281 4.33806 -0.000488281 9.6875V21.3125C-0.000488281 26.6619 4.33757 31 9.68701 31H21.312C26.6614 31 30.9995 26.6619 30.9995 21.3125V9.6875C30.9995 4.33806 26.6614 0 21.312 0ZM28.0933 21.3125C28.0933 25.0519 25.0514 28.0938 21.312 28.0938H9.68701C5.94764 28.0938 2.90576 25.0519 2.90576 21.3125V9.6875C2.90576 5.94812 5.94764 2.90625 9.68701 2.90625H21.312C25.0514 2.90625 28.0933 5.94812 28.0933 9.6875V21.3125Z" fill="#F318BD"/>
<path d="M15.4995 7.75C11.2196 7.75 7.74951 11.2201 7.74951 15.5C7.74951 19.7799 11.2196 23.25 15.4995 23.25C19.7794 23.25 23.2495 19.7799 23.2495 15.5C23.2495 11.2201 19.7794 7.75 15.4995 7.75ZM15.4995 20.3438C12.8296 20.3438 10.6558 18.1699 10.6558 15.5C10.6558 12.8282 12.8296 10.6562 15.4995 10.6562C18.1694 10.6562 20.3433 12.8282 20.3433 15.5C20.3433 18.1699 18.1694 20.3438 15.4995 20.3438Z" fill="#F318BD"/>
<path d="M23.8308 8.20142C24.4011 8.20142 24.8635 7.73907 24.8635 7.16873C24.8635 6.5984 24.4011 6.13605 23.8308 6.13605C23.2604 6.13605 22.7981 6.5984 22.7981 7.16873C22.7981 7.73907 23.2604 8.20142 23.8308 8.20142Z" fill="#F318BD"/>
</g>
<defs>
<clipPath id="clip0_6_127">
<rect width="31" height="31" fill="white" transform="translate(-0.000488281)"/>
</clipPath>
</defs>
</svg>
